<svg xmlns="http://www.w3.org/2000/svg" aria-hidden="true" style="position:absolute;width:0;height:0;overflow:hidden"><defs><symbol id="icon-menu" viewBox="0 0 32 32"><path d="M4 24v-2h24v2zm0-7v-2h24v2zm0-7V8h24v2z"/></symbol><symbol id="icon-close" viewBox="0 0 32 32"><path d="m8.3 25.1-1.4-1.4 7.7-7.7-7.7-7.7 1.4-1.4 7.7 7.7 7.7-7.7 1.4 1.4-7.7 7.7 7.7 7.7-1.4 1.4-7.7-7.7z"/></symbol><symbol id="icon-cart" viewBox="0 0 32 32"><path d="m16 12.867-1.4-1.4L17.067 9H11V7h6.067L14.6 4.533l1.4-1.4L20.867 8zM9.667 29.333q-1 0-1.7-.7t-.7-1.7.7-1.7 1.7-.7 1.7.7.7 1.7-.7 1.7-1.7.7zm13.466 0q-1 0-1.7-.7t-.7-1.7.7-1.7 1.7-.7 1.7.7.7 1.7-.7 1.7-1.7.7zM2.067 4.667v-2h3.867L11.601 14.8h9.6l5.333-9.333h2.233l-5.4 10.1q-.367.633-.95 1.017t-1.283.383h-10.1l-1.867 3.467h16.367v2H9.467q-1.267 0-1.917-1t-.083-2.033L9.6 15.468l-4.933-10.8z"/></symbol></defs></svg>